<?xml version="1.0" encoding="UTF-8" standalone="no"?>
<svg xmlns:dc="http://purl.org/dc/elements/1.1/" xmlns:cc="http://creativecommons.org/ns#" xmlns:rdf="http://www.w3.org/1999/02/22-rdf-syntax-ns#" xmlns:svg="http://www.w3.org/2000/svg" xmlns="http://www.w3.org/2000/svg" xmlns:sodipodi="http://sodipodi.sourceforge.net/DTD/sodipodi-0.dtd" xmlns:inkscape="http://www.inkscape.org/namespaces/inkscape" version="1.1" id="svg27" xml:space="preserve" width="693.6413" height="693.64197" viewBox="0 0 693.64129 693.64197" sodipodi:docname="cs16.svg" inkscape:version="0.92.2 (5c3e80d, 2017-08-06)">
	<metadata id="metadata33">
		<rdf:RDF>
			<cc:Work rdf:about="">
				<dc:format>image/svg+xml</dc:format>
				<dc:type rdf:resource="http://purl.org/dc/dcmitype/StillImage" />
				<dc:title></dc:title>
			</cc:Work>
		</rdf:RDF>
	</metadata>
	<defs id="defs31" />
	<sodipodi:namedview pagecolor="#ffffff" bordercolor="#666666" borderopacity="1" objecttolerance="10" gridtolerance="10" guidetolerance="10" inkscape:pageopacity="0" inkscape:pageshadow="2" inkscape:window-width="690" inkscape:window-height="480" id="namedview29" showgrid="false" inkscape:zoom="0.21071429" inkscape:cx="365.16212" inkscape:cy="361.1628" inkscape:window-x="90" inkscape:window-y="38" inkscape:window-maximized="0" inkscape:current-layer="g35" />
	<g id="g35" inkscape:groupmode="layer" inkscape:label="cs16" transform="matrix(1.3333333,0,0,-1.3333333,-29.504533,892.47918)">
		<path d="m 450.3389,564.7837 c -1.1866,0.7915 -3.9561,0.396 -3.9561,1.583 0,1.187 -10e-4,3.5605 1.1865,4.3521 1.1875,0.7915 3.5606,1.978 2.3741,2.7695 -1.1866,0.7915 -4.3526,1.187 -4.3526,2.374 0,1.187 0,8.7046 0,8.7046 0,0 -4.748,0.3955 -4.748,-1.187 0,-1.5825 1.1865,-7.1216 -0.3955,-7.1216 -1.5821,0 -19.3868,0 -18.9912,1.5825 0.3955,1.5825 3.164,3.9571 1.9775,4.7481 -1.1865,0.791 -5.9336,1.978 -6.7256,0.3955 -0.792,-1.5825 0.3955,-4.3521 -1.583,-4.3521 -1.9785,0 -17.0137,-0.7915 -17.4092,1.5825 -0.3955,2.3741 0.3955,7.1221 0.3955,7.1221 l -5.539,1.978 c 0,0 -2.3741,-5.539 -4.3526,-6.726 -1.9785,-1.187 -23.3447,-1.187 -26.5097,0 -3.1651,1.187 -12.6612,1.5825 -12.6612,1.5825 0,0 -1.1875,7.5171 -2.374,7.9131 -1.1865,0.396 -8.7051,0.3955 -10.2871,-1.187 -1.582,-1.5826 -1.9785,-3.5606 -1.9785,-3.5606 0,0 -13.8487,0.395 -15.0352,-0.396 -1.1865,-0.791 -7.123,-7.9126 -9.1006,-8.3086 -1.9775,-0.396 -9.4951,0.3955 -9.4951,0.3955 0,0 -2.375,6.7261 -0.3965,9.1001 1.9786,2.3741 7.9141,14.2442 7.9141,15.4312 0,1.187 -12.6611,35.2134 -30.4663,35.6089 -17.8052,0.3955 -47.4795,-10.6826 -40.7534,-52.6231 0,0 -3.5611,1.978 -4.7481,1.978 -1.187,0 -34.0273,-38.3789 -34.4228,-42.7314 -0.3955,-4.3525 3.1655,-15.8267 -16.6177,-98.1245 l 5.5391,-0.791 c 0,0 -3.9566,-7.1216 -3.9566,-11.4741 0,-4.3526 2.5493,-6.9468 2.5493,-9.7164 0,-2.7695 3.3853,-5.3193 2.5943,-8.4843 -0.791,-3.1651 -3.564,-11.4727 -3.564,-11.4727 -3.9565,-10.6826 -24.1352,-83.0898 -24.9268,-88.2334 -0.7915,-5.1435 -1.1865,-6.7256 -6.3305,-8.7041 -5.1441,-1.9785 -13.4527,-5.9355 -23.3443,-19.3877 -9.8916,-13.4521 -11.4741,-15.0351 -11.4741,-15.0351 0,0 -0.791,-5.5391 -3.561,-10.2871 0,0 6.3306,-20.1788 7.5176,-25.3223 1.187,-5.1436 1.187,-5.5391 3.9565,-7.5176 2.7695,-1.9785 8.7046,-4.3516 13.4526,-9.8916 0,0 14.6397,5.1445 19.7832,4.7481 0,0 1.9781,7.9121 1.9781,11.8691 0,3.957 -4.3521,16.6182 -4.3521,16.6182 0,0 29.2793,0.3955 30.8618,1.9785 1.5826,1.583 12.6612,28.4873 16.6177,35.6094 3.9566,7.122 6.7266,13.4531 7.1221,16.2226 0.3955,2.7695 -1.9785,4.3516 9.1001,30.4658 11.0786,26.1143 17.8047,45.502 19.7832,45.8975 1.9785,0.3955 10.685,-3.5606 19.3896,-15.0352 8.7046,-11.4746 18.2007,-26.1132 23.7398,-32.0488 5.539,-5.9355 14.2436,-11.8701 17.0132,-16.2227 2.7695,-4.3525 7.122,-27.3007 9.8916,-39.5664 2.7695,-12.2656 9.4961,-31.6533 9.4961,-39.1709 0,-7.5175 -1.5821,-16.2226 -0.3955,-17.8046 1.1865,-1.5821 7.121,-10.2872 10.6826,-13.0567 3.5615,-2.7695 19.3877,-13.4531 24.5312,-13.4531 5.1436,0 20.1787,1.9785 20.1787,1.9785 0,0 1.9785,7.5186 -0.791,13.4531 -2.7695,5.9346 -6.7256,10.6826 -10.6826,18.5957 -3.957,7.9131 -5.1445,7.1231 -5.9355,13.8487 -0.7911,6.7256 -2.3741,29.6748 -2.3741,35.2138 0,5.5391 -1.9785,8.7041 -3.165,13.0567 -1.1865,4.3525 -3.165,11.4736 -3.165,19.7832 0,8.3095 1.9785,12.2656 -0.3956,15.0351 -2.374,2.7696 -7.122,9.1016 -9.496,13.4532 -2.3741,4.3515 -5.5381,9.4951 -10.6827,16.2216 -5.1445,6.7266 -13.4531,16.2227 -13.4531,18.5967 0,2.374 1.583,5.9346 3.957,6.7256 2.3741,0.791 3.9561,1.9775 3.1651,3.9561 -0.791,1.9785 -3.5615,8.3095 -11.4746,18.2011 -7.9131,9.8916 -15.0347,17.8047 -18.5957,22.9483 -3.5611,5.1435 -7.5176,11.0781 -8.7046,11.4741 -1.187,0.396 -3.9571,-2.374 -5.5396,-2.374 -1.5825,0 -3.561,-1.1866 -3.561,6.7265 0,7.9131 -1.9785,14.6392 1.187,16.6177 3.1655,1.9785 8.3091,1.187 8.3091,1.187 0,0 1.583,11.0781 1.9785,17.4087 0.3955,6.3306 -3.561,15.0352 9.8916,15.0352 13.4526,0 15.0356,3.1655 21.3657,3.561 6.3301,0.3955 8.7041,3.957 13.0567,3.561 4.3525,-0.396 7.9131,1.1866 12.6611,7.9131 4.748,6.7266 5.9355,11.8701 15.8271,9.4961 9.8916,-2.374 11.0782,-3.1655 13.8477,-3.1655 2.7695,0 4.748,1.583 4.3525,4.3525 -0.3955,2.7696 -1.9785,15.8262 0,15.8262 1.9786,0 3.1651,-4.7476 4.7481,-10.6826 1.583,-5.9351 6.7256,-18.9922 11.0781,-26.9053 4.3526,-7.9131 5.1445,-10.2876 8.7051,-8.3091 3.5605,1.9785 6.3301,2.77 1.1865,11.8701 -5.1435,9.1001 -13.4521,26.1133 -13.0566,36.4009 0,0 0,3.9571 2.7695,1.9785 2.7695,-1.9785 6.3301,-5.539 7.5176,-5.539 1.1875,0 4.3525,7.1216 7.1221,7.1216 2.7695,0 5.1435,3.957 7.913,8.309 2.7696,4.3521 3.958,5.5391 3.958,5.5391 0,0 22.1573,0.3955 23.7403,1.5825 1.583,1.187 1.9785,2.7696 6.7265,2.374 4.7481,-0.3955 9.8916,-0.3955 9.8916,-0.3955 v 3.5611 c 0,0 -7.5185,-5e-4 -8.705,0.791 M 331.2441,551.7266 c -2.7695,-1.9786 -4.3525,-2.3741 -6.331,-2.3741 -1.9785,0 -6.7256,-1.187 -9.4951,-1.5825 -2.7696,-0.3955 -4.3526,-2.7695 -9.1006,-7.1221 -4.7481,-4.3525 -7.1221,-1.978 -10.2876,0 0,0 0,0 -1.978,1.1871 -1.9781,1.187 0,4.3525 7.913,9.8916 7.9131,5.539 7.5176,5.935 11.8702,6.3305 4.3525,0.3955 13.8476,-1.978 18.2002,-2.374 4.3525,-0.396 1.9785,-1.978 -0.7911,-3.9565 z" style="fill:#231f20;fill-opacity:1;fill-rule:nonzero;stroke:#231f20;stroke-width:1;stroke-linecap:butt;stroke-linejoin:miter;stroke-miterlimit:4;stroke-dasharray:none;stroke-opacity:1" id="path37" inkscape:connector-curvature="0" />
		<path d="m 282.2441,668.8594 c -143.3818,0 -259.6157,-116.2339 -259.6157,-259.6162 0,-143.3819 116.2339,-259.6153 259.6157,-259.6153 143.3819,0 259.6153,116.2334 259.6153,259.6153 0,143.3823 -116.2334,259.6162 -259.6153,259.6162 m 0,-503.2051 c -134.5307,0 -243.5898,109.0586 -243.5898,243.5898 0,134.5303 109.0591,243.5894 243.5898,243.5894 134.5313,0 243.5899,-109.0591 243.5899,-243.5894 0,-134.5312 -109.0586,-243.5898 -243.5899,-243.5898 z" style="fill:#231f20;fill-opacity:1;fill-rule:nonzero;stroke:#231f20;stroke-width:1;stroke-linecap:butt;stroke-linejoin:miter;stroke-miterlimit:4;stroke-dasharray:none;stroke-opacity:1" id="path39" inkscape:connector-curvature="0" />
	</g>
</svg>
